

<svg version="1.1" xmlns="http://www.w3.org/2000/svg" xmlns:xlink="http://www.w3.org/1999/xlink" x="0px" y="0px" viewBox="0 0 5463 1104" style="enable-background:new 0 0 5463 1104" xml:space="preserve">
<style type="text/css">
	.st0{fill:url(#path536_1_);}
</style>
<g id="svg490">
	<g id="g496">
		
			<image style="overflow:visible;opacity:0.75" width="5584" height="1225" transform="matrix(1 0 0 1 -61 -61)">
		</image>
		<g>
			<g>
				<linearGradient id="path536_1_" gradientUnits="userSpaceOnUse" x1="655.2687" y1="-741.8392" x2="4818.7998" y2="1661.9764">
					<stop offset="0.1061" style="stop-color:#FFFFFF"></stop>
					<stop offset="0.6229" style="stop-color:#E2FAED"></stop>
					<stop offset="1" style="stop-color:#FFFFFF"></stop>
				</linearGradient>
				<path id="path536_12_" class="st0" d="M2951,749h-17c-2.2,51.6-5.6,103.4-9.1,155c-1,14.6-2.7,29.4-2.9,44
					c-0.1,4.7-1.9,11.9,0.6,16c9.1,14.9,30.5,28.5,44.4,38.9c43.3,32.5,91.9,58.3,144,73.6c166.8,48.8,397.1,40,499.9-122.4
					c13.9-21.9,23.9-46.2,31.3-71c10.5-35.3,15.4-74.4,11.9-111c-2.3-24.5-6.7-47.8-15.2-71c-34.9-95.2-119.6-145.2-206.9-185.3
					c-54-24.8-108.3-48.6-163-71.8c-80-34.1-165.9-78.6-196.3-165.9c-6.1-17.3-7.4-36.8-8.6-55c-5.5-80.2,53.5-162.3,127.9-188.3
					c46.8-16.3,101.1-14.8,149-4.3c83.8,18.5,144,82.1,181.3,156.6c14.2,28.4,26.7,61.3,30.8,93h13c0.3-40.3,6.3-81.9,10.2-122
					c1.1-11,2.3-22,2.9-33c0.2-4.1,1.7-8.2-0.6-12c-8.5-13.7-23.9-25.4-36.4-35.4c-37.9-30.3-82.1-50.7-129-62.5
					C3269.5-20.8,3086.6-0.8,3006.1,140c-12,21-20.4,44.2-24.7,68c-12.1,66.7,3.2,139.2,45,193c27.4,35.3,65.6,63.3,104.6,84.7
					c91.1,50.2,191,81.7,282,132.4c36.1,20.2,73.8,42.9,101.8,73.9c37.5,41.4,53.7,94,56.1,149c1,23.3-2.4,47.4-8.1,70
					c-4.7,18.6-12.4,36.5-22.3,53c-66.8,111.3-214.3,124.3-328.6,94.1c-100.7-26.6-185.8-108.8-228.7-202.1
					C2967.5,821.6,2958.2,786,2951,749 M3805,749h-17c-2.2,51.6-5.6,103.4-9.1,155c-1,14.6-2.7,29.4-2.9,44
					c-0.1,4.7-1.9,11.9,0.6,16c9.1,14.9,30.5,28.5,44.4,38.9c43.3,32.5,91.9,58.3,144,73.6c166.8,48.8,397.1,40,500-122.4
					c13.9-21.9,23.9-46.2,31.3-71c10.5-35.2,15.4-74.4,11.9-111c-2.3-24.5-6.7-47.8-15.2-71c-34.9-95.2-119.6-145.2-207-185.3
					c-54-24.8-108.3-48.6-163-71.8c-80-34.1-165.9-78.6-196.3-165.9c-6.1-17.3-7.4-36.8-8.6-55c-5.5-80.2,53.5-162.3,127.9-188.3
					c46.8-16.3,101.1-14.8,149-4.3c83.8,18.5,144,82.1,181.3,156.6c14.2,28.4,26.7,61.3,30.8,93h13c0.3-40.3,6.3-81.9,10.2-122
					c1-11,2.3-22,2.9-33c0.2-4.1,1.7-8.2-0.6-12c-8.8-14.1-24.6-26-37.4-36.2c-37.5-29.9-81.6-50.1-128-61.7
					C4123.5-20.8,3940.6-0.8,3860.1,140c-12,21-20.4,44.2-24.7,68c-12.1,66.7,3.2,139.2,45,193c27.4,35.3,65.6,63.3,104.6,84.7
					c91.1,50.2,191,81.7,282,132.4c36.1,20.2,73.8,42.9,101.8,73.9c37.5,41.4,53.7,94,56.1,149c1,23.3-2.4,47.4-8.1,70
					c-4.7,18.6-12.4,36.5-22.3,53c-66.8,111.3-214.3,124.3-328.6,94.1c-100.7-26.6-185.8-108.8-228.7-202.1
					C3821.5,821.6,3812.2,786,3805,749 M1805,1055v16l136-5l131,5v-16c-13.6,0.2-26.7-0.1-40-3.4c-9.7-2.4-19.4-5.9-28-11.1
					c-7.5-4.5-15-9.8-20.7-16.6c-27.6-33,0-83.9,13.3-117c34.5-86.2,70.6-171.8,105.2-258c14.7-36.7,34.8-73.9,45.2-112h1
					c13.6,49.6,67.8,79.5,114,91.1c43.1,10.8,87.3,8.7,131,14.2c62.4,7.8,124.7,31.9,166.6,80.7c15.3,17.8,27.1,39.1,37.7,60
					c7.4,14.7,15,29.2,22,44c5.5,11.6,10.5,23.4,16,35c5,10.5,8.2,22.1,12.5,33c17.7,44.2,45.4,111.8-7.8,143.6
					c-7.4,4.4-15.7,7.3-24,9.3c-13.5,3.3-27.2,4.1-41,4.1v19l155-5l169,5v-19c-16.9,0-34-1.9-50-7.7
					c-70.3-25.5-94.6-114.4-121.3-176.3c-88.3-204.7-175.8-409.9-263.3-615c-27.5-64.4-55-128.7-82.6-193l-17.6-41
					c-1.9-4.5-3.8-13.1-7.9-16c-3.3-2.3-10.5-1.1-14.4-1c-8.3,0.2-9.4,8.4-12,15c-6.3,15.7-12.7,31.3-19,47
					c-26.7,66.7-52.6,133.8-80.4,200c-83.1,198-166,396.2-247,595c-30.4,74.6-56.3,159.3-140.6,187.3
					C1830.8,1050.4,1817.8,1054,1805,1055 M968,1071c0-62.1,2.7-124.9,0-187c-1-23.6-1-47.3-1-71c0-24.2,0.1-49.2,9.9-72
					c15.7-36.6,55.8-49,93.1-49v-16l-236,2l-52-2l-18.4,1l-1.6,15c24.4,0,55.8,1.1,78,12.7c68.6,35.7,55.5,136.2,29.1,195.3
					C836,974.5,759.5,1025.7,684,1050.3c-105.5,34.4-229.7,18.3-326-35.5c-33-18.4-63.7-40.7-91-66.8c-33.2-31.7-62.9-66.6-86.6-106
					c-62.1-103.5-78.7-225.4-70.5-344c3.9-56.7,12.7-113.1,31.4-167c35.1-101.2,104-188.5,196.7-243C489.3-0.9,722.8,1.6,847.9,136
					c55.3,59.3,85,139.4,95.1,219h16c3.6-45.3,13.5-91.1,20.4-136c1.8-11.7,3.4-23.4,5.3-35c0.7-4.5,3.2-11.6,1.2-16
					c-5.5-12.1-24.6-23.9-34.9-31.9c-32.1-24.8-66.7-46.2-103-64.4C746.6,21,636.5,4,524,9c-73.5,3.2-145.8,15.8-214,44.5
					c-36.3,15.2-70.5,35.3-102,58.9C13.4,258.3-46.4,531,33.3,755C67.5,851.1,127,935.3,209,996.9c92,69,202.9,107.1,318,107.1
					c79.4,0,161.1-13.1,232-50.3c28.4-14.9,54.6-33.5,81-51.7c15.5-10.7,30.3-23.5,50-24.9c33.1-2.3,48.8,35.1,57.3,60.9
					c2.5,7.5,4.5,15.2,6.2,23c0.6,2.7,0.6,7.2,3,9C959.3,1072,964.8,1071,968,1071 M1128,33v16c14.1,0,28.3,1.8,42,5.1
					c19,4.6,38.4,12.8,50.5,28.9c11,14.7,13.8,35.3,15.7,53c3.8,35.3,1.8,71.5,1.8,107c0,108.1,1.7,216.1,3,324
					c1.2,96.7-1.5,193.3-2,290c-0.2,35.6,1,72.6-2.8,108c-2.1,19.4-5.5,41.1-17.7,57c-11.9,15.5-30,23.5-48.5,28.1
					c-13.9,3.5-27.7,4.9-42,4.9v16l474-1l123,1h32l12.3-1l7.1-15l15.6-38l40-97l19-47l-13-6c-17.2,27.8-37.4,53.4-61,76
					c-23.5,22.5-50,44.8-79,59.8c-112.3,57.9-248,44.3-370,44.3V282c0-45.8-2.4-92.4,0.9-138c1.6-22.2,4.9-48.7,20.4-66
					c20.6-23,59.5-29,88.7-29V33H1128 M4500,33v14c12.5,2.3,25.4,2.2,38,4.6c26.4,5,51.3,15.5,73,31.5
					c24.2,17.9,40.4,49.6,55.8,74.8c27.7,45.2,55.6,90.2,83.9,135c48.3,76.7,95.3,154.2,143.4,231c15.2,24.3,30.2,48.7,45.4,73
					c6.6,10.6,17.6,23,21.1,35c3.4,11.8-0.5,26.9-0.5,39c0,30,0.4,60.1-1,90c-3.2,72.6,3.1,145.6-4.2,218
					c-2.8,27.5-13.5,55.3-41.8,65.4c-15.3,5.5-33,7.2-49,9.8c-4.7,0.8-14.7-1.2-18.4,1.8c-3.2,2.5-1.6,11.3-1.6,15l140-2l176,2v-16
					c-30.2,0-75-4-95.7-29c-17.4-21-15.3-57.5-15.3-83c0-58.6-2-117.3-2-176c0-36.1-1-71.9-1-108c0-14.3-3.3-33.2,0.5-47
					c4.2-15.2,17.4-31.2,25.2-45c19.4-34.1,40.1-67.6,59-102c48.4-88.1,95.6-176.9,144-265c33.6-61.1,66.6-126.2,139.3-145.8
					c16.1-4.4,32.4-5.2,49-5.2V33l-172,2l-113-2v16c24.8,0,60.8,0.5,79.8,19.2c12,11.8,13.4,29.1,11.2,44.8
					c-4.3,31-17.9,61.9-31.3,90c-62.2,130.9-134.1,258.4-209.7,382c-7.7-16.3-20.3-30.8-30-46c-17.5-27.6-33.4-56.2-50.6-84
					c-44.6-72.1-85.9-146.3-131.1-218c-19.7-31.2-42.2-63.8-54-99c-5.4-16.1-9.6-34.5-2.9-51c15.5-37.9,70.1-32.9,102.5-37l-1.6-16
					l-22.4-1h-60l-188,2L4500,33 M2315,127l151.9,354l47.6,111l22.6,54c-15.1-4.1-29.6-10.2-45-13.6c-33.2-7.3-67.2-10-101-12.3
					c-52-3.6-116.8,0.3-161-32.2c-80.6-59.4-37-169.2-5.3-242.8c6-13.9,11.5-28,17.1-42c8.7-21.7,17.8-43.3,26.6-65
					c10.3-25.3,20.8-50.6,31-76C2303.6,151.5,2307.1,135.1,2315,127 M788,327c-8.3,65.2-61.3,115.8-126,124c3.2,4.5,12.8,4.8,18,6.1
					c13.2,3.3,25.1,8.2,37,14.7c39.2,21.3,65.4,62.4,71,106.2h2c5.6-43.8,31.4-83.7,70-105.7c12.4-7.1,25.2-12,39-15.5
					c5-1.3,14.1-1.4,17-5.9c-64.6-12-117.4-56.1-126-124H788 M2322,391c-7.1,28.8-20.1,52.2-48,65.7c-8.7,4.2-17.9,5.4-27,8.3
					c8,4.8,19.3,5,28,9.4c26.5,13.3,41.6,37.2,47,65.6h1c5.2-27.5,19.5-51.3,45-64.7c9.3-4.9,21.4-5.1,30-10.3
					c-27.3-8.6-50.1-17.1-65.1-44C2327.6,411.6,2327.2,399.7,2322,391 M977,494c-4.4,22.7-21.9,43-46,45v2c24.2,2,41.6,22.3,46,45h1
					c2-22.3,23.4-44,46-45v-2C996.2,536.7,987.4,515.5,977,494 M3969,701c-4.4,22.7-21.9,43-46,45v2c24.2,2,41.6,22.3,46,45h1
					c1.9-22.3,23.4-44,46-45v-2C3988.2,743.7,3979.4,722.5,3969,701 M4156,713c-8.3,65.2-61.3,115.8-126,124
					c3.2,4.5,12.8,4.8,18,6.1c13.2,3.3,25.1,8.2,37,14.7c39.2,21.3,65.4,62.4,71,106.2h2c5.6-43.8,31.4-83.7,70-105.7
					c12.4-7.1,25.2-12,39-15.5c5-1.3,14.1-1.4,17-5.9c-64.6-12-117.4-56.1-126-124H4156z"></path>
			</g>
		</g>
	</g>
</g>
<g id="레이어_2">
</g>
</svg>
